<svg width="73" height="73" viewBox="0 0 73 73" fill="none" xmlns="http://www.w3.org/2000/svg">
<path d="M41.9822 13.2818C38.528 13.2885 35.1378 14.2145 32.1599 15.9648C29.182 17.7151 26.7237 20.2266 25.0374 23.2412C23.5854 22.538 21.9939 22.1702 20.3805 22.1652C17.85 22.171 15.4039 23.0759 13.4789 24.7184C11.5538 26.361 10.2752 28.6342 9.87115 31.1322C7.19955 32.2514 4.91795 34.1346 3.31258 36.5456C1.70722 38.9566 0.849591 41.7879 0.84729 44.6845C0.852043 48.5816 2.40352 52.3175 5.16091 55.0716C7.9183 57.8256 11.6561 59.3725 15.5533 59.3725C16.1702 59.3658 16.7861 59.3209 17.3975 59.238H60.4992C67.3889 58.425 72.5778 52.4888 72.5838 45.5214V45.4945C72.5814 42.3041 71.4682 39.2141 69.4353 36.7552C67.4024 34.2964 64.5768 32.6221 61.4437 32.02C61.2579 26.9841 59.1257 22.2167 55.4958 18.7211C51.8659 15.2256 47.0215 13.2776 41.9822 13.2818Z" fill="black"/>
</svg>
