<svg width="72" height="72" fill="none" xmlns="http://www.w3.org/2000/svg"><path fill-rule="evenodd" clip-rule="evenodd" d="M35.788 12.296A23.673 23.673 0 0 0 25.2 57.147a2.96 2.96 0 0 1-2.652 5.294A29.592 29.592 0 0 1 6.196 35.968c0-16.343 13.248-29.59 29.592-29.59 16.343 0 29.59 13.247 29.59 29.59a29.592 29.592 0 0 1-16.351 26.473 2.96 2.96 0 1 1-2.652-5.294 23.673 23.673 0 0 0-10.587-44.852Zm0 11.836a11.836 11.836 0 0 0-5.294 22.427 2.959 2.959 0 0 1-2.649 5.291 17.755 17.755 0 1 1 15.888 0 2.96 2.96 0 0 1-2.651-5.29 11.837 11.837 0 0 0-5.294-22.428Zm-5.919 11.836a5.918 5.918 0 1 1 11.836 0 5.918 5.918 0 0 1-11.836 0Z" fill="#000"/></svg>