<svg width="72" height="72" viewBox="0 0 72 72" fill="none" xmlns="http://www.w3.org/2000/svg">
<path fill-rule="evenodd" clip-rule="evenodd" d="M35.7876 12.2955C30.453 12.2932 25.274 14.0927 21.0902 17.4024C16.9065 20.712 13.9632 25.3378 12.7376 30.5297C11.512 35.7216 12.0759 41.1752 14.3379 46.0065C16.5999 50.8378 20.4274 54.7634 25.1998 57.147C25.9018 57.4986 26.4354 58.1147 26.6832 58.8597C26.931 59.6047 26.8727 60.4176 26.5211 61.1196C26.1695 61.8216 25.5534 62.3552 24.8084 62.603C24.0634 62.8508 23.2505 62.7925 22.5484 62.4409C17.6334 59.9821 13.5002 56.2031 10.612 51.5275C7.72386 46.8518 6.19483 41.4642 6.19629 35.9685C6.19629 19.6252 19.4443 6.3772 35.7876 6.3772C52.1309 6.3772 65.3789 19.6252 65.3789 35.9685C65.3804 41.4642 63.8513 46.8518 60.9632 51.5275C58.075 56.2031 53.9418 59.9821 49.0267 62.4409C48.6791 62.615 48.3007 62.7189 47.9129 62.7467C47.5251 62.7745 47.1357 62.7257 46.7668 62.603C46.3979 62.4803 46.0568 62.2862 45.7629 62.0317C45.4691 61.7771 45.2282 61.4672 45.0541 61.1196C44.88 60.772 44.7761 60.3935 44.7483 60.0058C44.7205 59.618 44.7693 59.2286 44.892 58.8597C45.0147 58.4908 45.2088 58.1497 45.4633 57.8558C45.7179 57.5619 46.0278 57.3211 46.3754 57.147C51.1478 54.7634 54.9753 50.8378 57.2373 46.0065C59.4993 41.1752 60.0632 35.7216 58.8376 30.5297C57.612 25.3378 54.6687 20.712 50.485 17.4024C46.3012 14.0927 41.1222 12.2932 35.7876 12.2955ZM35.7876 24.132C33.1198 24.1302 30.5295 25.0296 28.437 26.6846C26.3445 28.3395 24.8725 30.6528 24.2596 33.2493C23.6467 35.8457 23.9289 38.5731 25.0605 40.9891C26.1921 43.405 28.1067 45.3679 30.4937 46.5592C31.1772 46.9208 31.692 47.5356 31.9279 48.272C32.1638 49.0084 32.1021 49.8079 31.756 50.4994C31.4099 51.1909 30.8068 51.7194 30.076 51.9718C29.3451 52.2243 28.5444 52.1806 27.8453 51.8502C24.2686 50.0608 21.4009 47.1164 19.7065 43.4938C18.0121 39.8711 17.5904 35.7826 18.5097 31.8904C19.429 27.9982 21.6354 24.5304 24.7715 22.0487C27.9077 19.567 31.7898 18.2168 35.7891 18.2168C39.7883 18.2168 43.6705 19.567 46.8066 22.0487C49.9427 24.5304 52.1492 27.9982 53.0684 31.8904C53.9877 35.7826 53.566 39.8711 51.8717 43.4938C50.1773 47.1164 47.3095 50.0608 43.7329 51.8502C43.0321 52.1946 42.2236 52.248 41.4835 51.9989C40.7435 51.7498 40.132 51.2182 39.7821 50.5202C39.4323 49.8221 39.3726 49.014 39.616 48.2721C39.8593 47.5301 40.3861 46.9145 41.0815 46.5592C43.4685 45.3679 45.3831 43.405 46.5147 40.9891C47.6463 38.5731 47.9285 35.8457 47.3156 33.2493C46.7027 30.6528 45.2307 28.3395 43.1382 26.6846C41.0456 25.0296 38.4554 24.1302 35.7876 24.132ZM29.8693 35.9685C29.8693 34.3989 30.4929 32.8935 31.6028 31.7837C32.7126 30.6738 34.218 30.0502 35.7876 30.0502C37.3572 30.0502 38.8625 30.6738 39.9724 31.7837C41.0823 32.8935 41.7059 34.3989 41.7059 35.9685C41.7059 37.5381 41.0823 39.0435 39.9724 40.1533C38.8625 41.2632 37.3572 41.8868 35.7876 41.8868C34.218 41.8868 32.7126 41.2632 31.6028 40.1533C30.4929 39.0435 29.8693 37.5381 29.8693 35.9685Z" fill="black"/>
</svg>
